<?xml version="1.0" encoding="iso-8859-1"?>

<!DOCTYPE svg PUBLIC "-//W3C//DTD SVG 1.1//EN" "http://www.w3.org/Graphics/SVG/1.1/DTD/svg11.dtd">
<!-- Uploaded to: SVG Repo, www.svgrepo.com, Generator: SVG Repo Mixer Tools -->
<svg height="800px" width="800px" version="1.1" id="_x35_" xmlns="http://www.w3.org/2000/svg" xmlns:xlink="http://www.w3.org/1999/xlink" 
	 viewBox="0 0 512 512"  xml:space="preserve">
<g>
	<g>
		<path style="fill:#F6EDC9;" d="M192.399,511.999h-0.638c-47.242-0.079-88.818-11.65-120.978-32.239
			c-20.269-12.928-36.868-29.447-48.918-48.918c-15.96-25.935-23.78-57.057-21.466-92.09c0.399-6.145,1.117-11.89,1.995-17.396
			c10.295-63.92,50.274-91.531,67.99-154.733c1.676-5.746,3.112-11.81,4.309-18.195c0.798-4.07,1.436-8.299,1.995-12.688
			c0.958-6.863,0.718-14.604-0.319-22.664c-0.08-0.877-0.24-1.675-0.319-2.553C69.028,61.925,34.075,0,34.075,0
			c38.384,0.718,38.783,32.878,78.044,32.878C151.781,32.878,151.781,0,191.442,0c39.661,0,39.661,32.878,79.322,32.878
			c12.05,0,20.429-3.032,27.371-7.262c13.566-8.22,21.706-20.987,40.858-24.578C342.345,0.32,346.015,0,350.165,0
			c0,0-1.676,2.873-4.309,7.9c-9.496,18.195-32.16,64.479-37.746,102.623c-0.08,0.878-0.239,1.676-0.319,2.553
			c-1.037,8.06-1.197,15.801-0.319,22.664c0.558,4.389,1.277,8.618,1.995,12.688c1.197,6.384,2.633,12.448,4.309,18.195
			c1.436,5.187,3.032,10.135,4.788,14.843c2.554,7.262,5.506,14.045,8.619,20.509c21.706,45.326,52.349,74.612,56.579,136.777
			C390.624,441.775,309.067,511.76,192.399,511.999z"/>
		<g>
			<g>
				<path style="fill:#928F65;" d="M250.973,344.179c-1.995-5.985-5.347-11.092-9.895-15.162c-3.671-3.671-7.98-6.464-13.008-8.539
					c-5.027-1.995-11.491-3.591-19.152-4.707l-1.516-0.24l-18.594-2.874c-3.671-0.398-6.703-1.196-9.097-2.314
					c-1.038-0.478-1.995-0.958-2.953-1.517c-1.197-0.798-2.314-1.596-3.352-2.553c-1.755-1.677-2.952-3.592-3.671-5.667
					c-0.718-1.995-1.037-4.149-1.037-6.383c0-5.825,2.075-10.853,6.224-15.003c0.559-0.559,1.197-1.117,1.836-1.596
					c4.149-3.112,10.055-4.709,17.715-4.709c4.15,0,8.459,0.399,12.928,1.197c1.516,0.24,3.033,0.478,4.549,0.878
					c6.145,1.277,11.81,4.469,17.077,9.576l20.748-20.587c-7.182-7.103-15.162-12.13-23.86-15.163
					c-5.586-1.915-11.73-3.271-18.514-3.91c-3.83-0.398-7.82-0.558-11.97-0.558c-6.703,0-12.928,0.638-18.673,1.995
					c-2.075,0.478-4.07,1.117-5.985,1.755c-7.262,2.553-13.407,6.065-18.434,10.533c-5.027,4.469-8.938,9.816-11.571,16.12
					c-2.713,6.225-3.99,13.088-3.99,20.669c0,14.365,3.99,25.376,12.05,33.117c3.75,3.671,8.219,6.624,13.486,8.859
					c4.07,1.835,8.858,3.271,14.444,4.309c1.516,0.319,3.112,0.558,4.708,0.797l20.11,3.034c2.234,0.398,4.15,0.718,5.825,1.116
					c1.436,0.319,2.634,0.639,3.591,1.038c2.075,0.797,3.99,1.995,5.666,3.591c3.511,3.431,5.267,8.06,5.267,13.885
					c0,6.863-2.554,12.05-7.581,15.641c-1.995,1.437-4.309,2.554-6.943,3.432c-4.229,1.357-9.416,1.995-15.561,1.995
					c-5.187,0-10.214-0.479-15.082-1.357c-2.314-0.479-4.629-1.037-6.943-1.676c-6.863-2.075-13.087-5.745-18.434-11.092
					l-21.307,21.227c8.22,8.378,17.317,14.205,27.372,17.396c5.985,1.915,12.369,3.272,19.312,4.07
					c4.788,0.559,9.735,0.799,14.843,0.799c5.506,0,10.773-0.479,15.8-1.358c3.033-0.478,6.065-1.196,8.938-2.074
					c7.661-2.315,14.285-5.587,19.87-9.975c5.586-4.309,9.975-9.656,13.167-15.96c3.112-6.305,4.708-13.567,4.708-21.707
					C254.085,356.947,253.048,350.164,250.973,344.179z"/>
			</g>
			<path style="fill:#928F65;" d="M207.395,245.451v28.627c-4.485-0.759-8.797-1.131-12.936-1.131
				c-7.626,0-13.522,1.557-17.674,4.685v-32.181c0-8.424,6.894-15.305,15.305-15.305c4.206,0,8.039,1.717,10.807,4.499
				c2.662,2.648,4.352,6.268,4.485,10.261C207.395,245.091,207.395,245.264,207.395,245.451z"/>
			<path style="fill:#928F65;" d="M207.395,315.535v31.103c-1.637-0.373-3.58-0.732-5.842-1.065l-20.11-3.074
				c-1.61-0.24-3.154-0.506-4.658-0.798v-32.886c0.905,0.546,1.863,1.051,2.888,1.504c2.449,1.105,5.483,1.903,9.103,2.369
				L207.395,315.535z"/>
			<path style="fill:#928F65;" d="M191.85,386.258c6.109,0,11.286-0.679,15.545-2.05v30.264c0,8.411-6.881,15.305-15.305,15.305
				c-8.305,0-15.132-6.721-15.292-14.986c-0.013-0.106-0.013-0.213-0.013-0.319V384.86
				C181.629,385.792,186.66,386.258,191.85,386.258z"/>
		</g>
		<path style="fill:#5FC0B8;" d="M334.286,198.384c-6.005,3.915-12.825,5.927-19.981,5.927c-1.881,0-3.782-0.137-5.702-0.418
			c-7.673-1.118-15.32-4.419-22.741-9.813c-3.51-2.556-6.917-5.56-10.149-8.919c-0.278-0.286-0.556-0.579-0.827-0.871
			c-4.952-5.285-9.464-11.406-13.284-17.998c-0.239-0.401-0.465-0.802-0.692-1.204c-2.579-4.591-4.822-9.395-6.645-14.301
			c-2.45-6.597-4.06-13.103-4.835-19.379c-1.409-11.47-0.032-22.188,4.137-31.365c0.388-0.848,0.795-1.685,1.228-2.511
			c2.87-5.451,10.175-7.807,16.322-5.262c1.558,0.648,2.889,1.542,3.969,2.614c0.394,0.396,0.756,0.814,1.079,1.25
			c0.886,1.187,1.5,2.516,1.81,3.909c0.446,2.018,0.259,4.167-0.679,6.196c-0.071,0.172-0.155,0.338-0.246,0.51
			c-0.246,0.464-0.478,0.94-0.692,1.422c-3.064,6.712-3.562,14.84-2.172,23.237c0.356,2.138,0.834,4.293,1.422,6.443
			c0.252,0.917,0.524,1.84,0.815,2.757c2.806,8.861,7.414,17.574,13.071,24.819c0.323,0.413,0.646,0.82,0.976,1.221
			c3.368,4.144,7.078,7.761,10.97,10.592c7.466,5.428,13.62,6.643,18.287,3.6c5.462-3.565,13.148-2.528,17.169,2.316
			C340.919,187.998,339.749,194.819,334.286,198.384z"/>
		<g>
			<path style="fill:#85CBBE;" d="M309.467,148.429c-0.718-4.07-1.437-8.299-1.995-12.688c-0.878-6.863-0.718-14.604,0.319-22.664
				c0.08-0.877,0.239-1.675,0.319-2.553c-4.948,0.798-9.895,1.597-14.923,2.315c-6.304,0.878-12.609,1.675-18.992,2.313
				c-3.272,0.479-6.464,0.799-9.815,1.038c-5.027,0.558-10.135,1.036-15.242,1.436c-14.843,1.197-29.845,1.915-45.087,2.075
				c-3.99,0.16-7.98,0.16-11.97,0.16c-40.06,0-79.003-3.272-116.03-9.337c0.079,0.878,0.239,1.676,0.319,2.553
				c1.037,8.06,1.277,15.801,0.319,22.664c-0.559,4.389-1.197,8.618-1.995,12.688c-1.197,6.384-2.633,12.448-4.309,18.195
				c25.456,3.91,51.79,6.623,78.763,7.98c14.125,0.718,28.409,1.117,42.933,1.117c25.057,0,49.636-1.117,73.496-3.272
				c6.543-0.558,13.007-1.197,19.391-1.995c2.633-0.239,5.267-0.558,7.9-0.958c5.586-0.639,11.092-1.436,16.519-2.235
				c1.436-0.16,2.953-0.399,4.389-0.638C312.1,160.877,310.663,154.813,309.467,148.429z"/>
		</g>
		<path style="fill:#96D3DA;" d="M309.141,163.19c0.654,8.385,0.403,16.626-0.74,24.242c-0.06,0.438-0.133,0.871-0.206,1.311
			c-0.615,3.782-1.463,7.399-2.527,10.792c-2.889,9.146-7.262,16.445-12.991,21.695c-1.438,1.306-2.949,2.488-4.516,3.512
			c-5.992,3.907-12.946,5.737-20.388,5.32c-6.766-0.38-11.956-6.178-11.576-12.951c0.38-6.773,6.179-11.949,12.951-11.576
			c5.784,0.332,10.185-4.183,13.094-13.401c1.293-4.096,2.126-8.664,2.506-13.499c0.045-0.56,0.089-1.127,0.114-1.699
			c0.568-9.812-0.67-20.599-3.534-30.656c-0.3-1.042-0.612-2.07-0.944-3.102c-0.149-0.463-0.305-0.925-0.466-1.38
			c-0.646-1.912-1.354-3.78-2.13-5.598c-0.622-1.473-1.287-2.91-1.987-4.306c-1.804-3.625-3.867-6.986-6.184-9.986
			c-2.097-2.723-4.398-5.141-6.9-7.168c-0.598-0.489-1.214-0.958-1.847-1.393c-0.546-0.396-1.097-0.759-1.659-1.108
			c-1.559-0.973-2.834-2.244-3.784-3.687c-0.102-0.155-0.204-0.316-0.292-0.472c-0.683-1.138-1.165-2.374-1.443-3.657
			c-0.113-0.504-0.195-1.017-0.231-1.533c-0.232-2.563,0.334-5.214,1.795-7.565c3.574-5.759,11.148-7.529,16.907-3.961
			c1.599,0.989,3.146,2.067,4.652,3.224c4.095,3.134,7.891,6.885,11.335,11.173c3.969,4.931,7.483,10.588,10.463,16.846
			c2.562,5.38,4.734,11.215,6.454,17.425c0.135,0.444,0.25,0.89,0.372,1.335c1.776,6.647,2.963,13.491,3.569,20.266
			C309.055,162.152,309.105,162.674,309.141,163.19z"/>
	</g>
	<path style="opacity:0.06;fill:#040000;" d="M327.159,201.898c2.464-0.929,4.868-2.041,7.127-3.514
		c5.462-3.564,6.632-10.386,2.612-15.23c-4.021-4.843-11.707-5.881-17.169-2.315c-0.367,0.24-0.802,0.281-1.187,0.468
		c-1.704-4.706-3.328-9.544-4.766-14.682c-1.676-5.746-3.112-11.81-4.31-18.195c-0.48-2.721-0.901-5.618-1.334-8.482L20.19,427.891
		c30.451,52.181,93.029,83.948,171.571,84.109h0.639c116.668-0.239,198.224-70.224,191.361-173.246
		C379.561,276.592,348.891,247.277,327.159,201.898z"/>
</g>
</svg>