<svg xmlns="http://www.w3.org/2000/svg" xml:space="preserve" width="800" height="800" viewBox="0 0 512 512"><path d="M192.399 511.999h-.638c-47.242-.079-88.818-11.65-120.978-32.239-20.269-12.928-36.868-29.447-48.918-48.918-15.96-25.935-23.78-57.057-21.466-92.09.399-6.145 1.117-11.89 1.995-17.396 10.295-63.92 50.274-91.531 67.99-154.733q2.514-8.618 4.309-18.195c.798-4.07 1.436-8.299 1.995-12.688.958-6.863.718-14.604-.319-22.664-.08-.877-.24-1.675-.319-2.553C69.028 61.925 34.075 0 34.075 0c38.384.718 38.783 32.878 78.044 32.878C151.781 32.878 151.781 0 191.442 0s39.661 32.878 79.322 32.878c12.05 0 20.429-3.032 27.371-7.262 13.566-8.22 21.706-20.987 40.858-24.578C342.345.32 346.015 0 350.165 0c0 0-1.676 2.873-4.309 7.9-9.496 18.195-32.16 64.479-37.746 102.623-.08.878-.239 1.676-.319 2.553-1.037 8.06-1.197 15.801-.319 22.664.558 4.389 1.277 8.618 1.995 12.688q1.795 9.575 4.309 18.195a180 180 0 0 0 4.788 14.843c2.554 7.262 5.506 14.045 8.619 20.509 21.706 45.326 52.349 74.612 56.579 136.777 6.862 103.023-74.695 173.008-191.363 173.247" style="fill:#f6edc9"/><path d="M250.973 344.179c-1.995-5.985-5.347-11.092-9.895-15.162-3.671-3.671-7.98-6.464-13.008-8.539-5.027-1.995-11.491-3.591-19.152-4.707l-1.516-.24-18.594-2.874c-3.671-.398-6.703-1.196-9.097-2.314a34 34 0 0 1-2.953-1.517c-1.197-.798-2.314-1.596-3.352-2.553-1.755-1.677-2.952-3.592-3.671-5.667-.718-1.995-1.037-4.149-1.037-6.383 0-5.825 2.075-10.853 6.224-15.003a17.5 17.5 0 0 1 1.836-1.596c4.149-3.112 10.055-4.709 17.715-4.709q6.225 0 12.928 1.197c1.516.24 3.033.478 4.549.878 6.145 1.277 11.81 4.469 17.077 9.576l20.748-20.587c-7.182-7.103-15.162-12.13-23.86-15.163-5.586-1.915-11.73-3.271-18.514-3.91-3.83-.398-7.82-.558-11.97-.558-6.703 0-12.928.638-18.673 1.995-2.075.478-4.07 1.117-5.985 1.755q-10.893 3.83-18.434 10.533c-5.027 4.469-8.938 9.816-11.571 16.12-2.713 6.225-3.99 13.088-3.99 20.669 0 14.365 3.99 25.376 12.05 33.117 3.75 3.671 8.219 6.624 13.486 8.859 4.07 1.835 8.858 3.271 14.444 4.309 1.516.319 3.112.558 4.708.797l20.11 3.034c2.234.398 4.15.718 5.825 1.116 1.436.319 2.634.639 3.591 1.038a17.05 17.05 0 0 1 5.666 3.591q5.267 5.147 5.267 13.885c0 6.863-2.554 12.05-7.581 15.641-1.995 1.437-4.309 2.554-6.943 3.432-4.229 1.357-9.416 1.995-15.561 1.995a85 85 0 0 1-15.082-1.357 109 109 0 0 1-6.943-1.676c-6.863-2.075-13.087-5.745-18.434-11.092l-21.307 21.227c8.22 8.378 17.317 14.205 27.372 17.396 5.985 1.915 12.369 3.272 19.312 4.07 4.788.559 9.735.799 14.843.799 5.506 0 10.773-.479 15.8-1.358a66 66 0 0 0 8.938-2.074c7.661-2.315 14.285-5.587 19.87-9.975 5.586-4.309 9.975-9.656 13.167-15.96 3.112-6.305 4.708-13.567 4.708-21.707q.001-11.37-3.111-20.348" style="fill:#928f65"/><path d="M207.395 245.451v28.627c-4.485-.759-8.797-1.131-12.936-1.131-7.626 0-13.522 1.557-17.674 4.685v-32.181c0-8.424 6.894-15.305 15.305-15.305 4.206 0 8.039 1.717 10.807 4.499a15.17 15.17 0 0 1 4.485 10.261c.013.185.013.358.013.545M207.395 315.535v31.103c-1.637-.373-3.58-.732-5.842-1.065l-20.11-3.074c-1.61-.24-3.154-.506-4.658-.798v-32.886a26 26 0 0 0 2.888 1.504c2.449 1.105 5.483 1.903 9.103 2.369zM191.85 386.258c6.109 0 11.286-.679 15.545-2.05v30.264c0 8.411-6.881 15.305-15.305 15.305-8.305 0-15.132-6.721-15.292-14.986-.013-.106-.013-.213-.013-.319V384.86c4.844.932 9.875 1.398 15.065 1.398" style="fill:#928f65"/><path d="M334.286 198.384c-6.005 3.915-12.825 5.927-19.981 5.927q-2.822.002-5.702-.418c-7.673-1.118-15.32-4.419-22.741-9.813-3.51-2.556-6.917-5.56-10.149-8.919a52 52 0 0 1-.827-.871c-4.952-5.285-9.464-11.406-13.284-17.998-.239-.401-.465-.802-.692-1.204a101.5 101.5 0 0 1-6.645-14.301c-2.45-6.597-4.06-13.103-4.835-19.379-1.409-11.47-.032-22.188 4.137-31.365q.58-1.272 1.228-2.511c2.87-5.451 10.175-7.807 16.322-5.262 1.558.648 2.889 1.542 3.969 2.614q.593.595 1.079 1.25a10.3 10.3 0 0 1 1.81 3.909 9.68 9.68 0 0 1-.679 6.196 6 6 0 0 1-.246.51q-.37.697-.692 1.422c-3.064 6.712-3.562 14.84-2.172 23.237a65 65 0 0 0 1.422 6.443c.252.917.524 1.84.815 2.757 2.806 8.861 7.414 17.574 13.071 24.819q.483.62.976 1.221c3.368 4.144 7.078 7.761 10.97 10.592 7.466 5.428 13.62 6.643 18.287 3.6 5.462-3.565 13.148-2.528 17.169 2.316 4.023 4.842 2.853 11.663-2.61 15.228" style="fill:#5fc0b8"/><path d="M309.467 148.429c-.718-4.07-1.437-8.299-1.995-12.688-.878-6.863-.718-14.604.319-22.664.08-.877.239-1.675.319-2.553-4.948.798-9.895 1.597-14.923 2.315-6.304.878-12.609 1.675-18.992 2.313-3.272.479-6.464.799-9.815 1.038a474 474 0 0 1-15.242 1.436 644 644 0 0 1-45.087 2.075c-3.99.16-7.98.16-11.97.16-40.06 0-79.003-3.272-116.03-9.337.079.878.239 1.676.319 2.553 1.037 8.06 1.277 15.801.319 22.664-.559 4.389-1.197 8.618-1.995 12.688q-1.795 9.575-4.309 18.195c25.456 3.91 51.79 6.623 78.763 7.98 14.125.718 28.409 1.117 42.933 1.117 25.057 0 49.636-1.117 73.496-3.272 6.543-.558 13.007-1.197 19.391-1.995q3.95-.358 7.9-.958c5.586-.639 11.092-1.436 16.519-2.235 1.436-.16 2.953-.399 4.389-.638q-2.514-8.619-4.309-18.194" style="fill:#85cbbe"/><path d="M309.141 163.19c.654 8.385.403 16.626-.74 24.242-.06.438-.133.871-.206 1.311-.615 3.782-1.463 7.399-2.527 10.792-2.889 9.146-7.262 16.445-12.991 21.695a36 36 0 0 1-4.516 3.512c-5.992 3.907-12.946 5.737-20.388 5.32-6.766-.38-11.956-6.178-11.576-12.951s6.179-11.949 12.951-11.576c5.784.332 10.185-4.183 13.094-13.401 1.293-4.096 2.126-8.664 2.506-13.499.045-.56.089-1.127.114-1.699.568-9.812-.67-20.599-3.534-30.656-.3-1.042-.612-2.07-.944-3.102a51 51 0 0 0-.466-1.38 77 77 0 0 0-2.13-5.598 73 73 0 0 0-1.987-4.306c-1.804-3.625-3.867-6.986-6.184-9.986-2.097-2.723-4.398-5.141-6.9-7.168a28 28 0 0 0-1.847-1.393 28 28 0 0 0-1.659-1.108 12.36 12.36 0 0 1-3.784-3.687 8 8 0 0 1-.292-.472 12 12 0 0 1-1.443-3.657 10 10 0 0 1-.231-1.533 12.2 12.2 0 0 1 1.795-7.565c3.574-5.759 11.148-7.529 16.907-3.961a56 56 0 0 1 4.652 3.224c4.095 3.134 7.891 6.885 11.335 11.173 3.969 4.931 7.483 10.588 10.463 16.846 2.562 5.38 4.734 11.215 6.454 17.425.135.444.25.89.372 1.335a120.4 120.4 0 0 1 3.569 20.266c.047.519.097 1.041.133 1.557" style="fill:#96d3da"/><path d="M327.159 201.898c2.464-.929 4.868-2.041 7.127-3.514 5.462-3.564 6.632-10.386 2.612-15.23-4.021-4.843-11.707-5.881-17.169-2.315-.367.24-.802.281-1.187.468-1.704-4.706-3.328-9.544-4.766-14.682q-2.513-8.618-4.31-18.195c-.48-2.721-.901-5.618-1.334-8.482L20.19 427.891c30.451 52.181 93.029 83.948 171.571 84.109h.639c116.668-.239 198.224-70.224 191.361-173.246-4.2-62.162-34.87-91.477-56.602-136.856" style="opacity:.06;fill:#040000"/></svg>