<svg xmlns="http://www.w3.org/2000/svg" width="800" height="800" fill="none" viewBox="0 0 24 24"><g fill="#000" fill-rule="evenodd" clip-rule="evenodd"><path d="M7.75 17.5a.75.75 0 0 0-.75-.75H2a.75.75 0 0 0 0 1.5h5a.75.75 0 0 0 .75-.75M16.25 6.5a.75.75 0 0 1 .75-.75h5a.75.75 0 0 1 0 1.5h-5a.75.75 0 0 1-.75-.75M22.75 17.5a.75.75 0 0 0-.75-.75h-9a.75.75 0 0 0 0 1.5h9a.75.75 0 0 0 .75-.75M1.25 6.5A.75.75 0 0 1 2 5.75h9a.75.75 0 0 1 0 1.5H2a.75.75 0 0 1-.75-.75"/><path d="M13.75 17.4a3.75 3.75 0 1 0-7.5 0 3.75 3.75 0 0 0 7.5 0M10.25 6.4a3.75 3.75 0 1 1 7.5 0 3.75 3.75 0 0 1-7.5 0"/></g></svg>