<svg xmlns="http://www.w3.org/2000/svg" xml:space="preserve" width="800" height="800" viewBox="0 0 72 72"><path d="M36 54c6.893 0 12.5-5.607 12.5-12.5v-26C48.5 8.607 42.893 3 36 3S23.5 8.607 23.5 15.5v26C23.5 48.393 29.107 54 36 54m-8.5-38.5c0-4.687 3.812-8.5 8.5-8.5s8.5 3.813 8.5 8.5v26c0 4.686-3.813 8.5-8.5 8.5s-8.5-3.814-8.5-8.5z"/><path d="M30.5 24a1 1 0 0 0 1-1v-8.518c0-2.303 2.094-2.482 2.851-2.482h.774a1 1 0 1 0 0-2h-.774c-3.126 0-4.851 1.801-4.851 4.482V23a1 1 0 0 0 1 1M31.5 27v-1a1 1 0 1 0-2 0v1a1 1 0 1 0 2 0M55.5 37a2 2 0 0 0-2 2v1.159C53.5 49.829 45.324 58 36.091 58h-.212C26.421 58 18.5 49.663 18.5 40.158V39a2 2 0 0 0-4 0v1.159c0 11.032 8.324 20.464 19 21.7V65h-6.376a2 2 0 0 0 0 4h17.001a2 2 0 0 0 0-4H37.5v-3.055c10.973-.755 20-10.234 20-21.787V39a2 2 0 0 0-2-2"/></svg>