<svg xmlns="http://www.w3.org/2000/svg" width="800" height="800" viewBox="0 0 24 24"><path fill="#95a5a6" d="M3 3v10c0 4.2 3.632 8 9 10 5.368-2 9-5.8 9-10V3z"/><path fill="#ecf0f1" d="M3 2v10c0 4.2 3.632 8 9 10 5.368-2 9-5.8 9-10V2z"/><path fill="#bdc3c7" d="M3 2v10c0 4.2 3.632 8 9 10V2z"/><path fill="#c0392b" d="M5 4v8c0 3.4 2.825 6.4 7 8 4.175-1.6 7-4.6 7-8V4z"/><path fill="#e74c3c" d="M12 4v16c4.175-1.6 7-4.6 7-8V4z"/><path fill="#c0392b" d="M9.156 8.1 7.75 9.5l2.844 2.9-2.844 2.8 1.406 1.4L12 13.8l2.844 2.8 1.406-1.4-2.844-2.8 2.844-2.8-1.438-1.5L12 11z"/><path fill="#ecf0f1" d="M9.156 7.1 7.75 8.5l2.844 2.9-2.844 2.8 1.406 1.4L12 12.8l2.844 2.8 1.406-1.4-2.844-2.8 2.844-2.8-1.438-1.5L12 10z"/></svg>