<svg xmlns="http://www.w3.org/2000/svg" xml:space="preserve" viewBox="0 0 290.627 290.627"><path d="M232.032 257.813V206.25h4.688v-4.688c0-12.923-10.514-23.438-23.438-23.438h-37.5V18.75c0-10.341-8.409-18.75-18.75-18.75s-18.75 8.409-18.75 18.75v159.375h-37.5c-12.923 0-23.438 10.514-23.438 23.438v4.688h4.688v51.563c0 18.094 14.719 32.813 32.813 32.813h75v-5.541c6.708 3.497 14.77 5.541 23.438 5.541h42.188v-9.375c-12.926-.002-23.439-10.516-23.439-23.439M147.657 18.75c0-5.17 4.205-9.375 9.375-9.375s9.375 4.205 9.375 9.375v135.938h-18.75zm0 145.313h18.75v14.063h-18.75zM100.782 187.5h112.5c6.113 0 11.325 3.919 13.261 9.375H87.521c1.935-5.456 7.149-9.375 13.261-9.375m14.062 93.751c-12.923-.001-23.438-10.515-23.438-23.439V206.25h23.438v51.563c0 9.178 3.797 17.475 9.891 23.438zm98.438 0c-18.094-.001-32.813-10.515-32.813-23.439h-9.375c0 9.361 2.02 17.573 5.377 23.438h-28.814c-12.923 0-23.438-10.514-23.438-23.438V206.25h75V225h9.375v-18.75h14.063v51.563c0 9.173 3.783 17.48 9.867 23.438z"/><path d="M199.219 234.375h9.375v9.375h-9.375zM35.157 239.063h-9.375c0 8.405 2.02 16.345 5.602 23.363-12.131-11.916-19.664-28.491-19.664-46.8H2.344c0 41.353 33.647 75 75 75v-9.375c-23.26-.001-42.187-18.929-42.187-42.188M264.844 281.25h23.438v9.375h-23.438zM44.532 229.688c0 7.753 6.309 14.063 14.063 14.063s14.063-6.309 14.063-14.063-6.309-14.063-14.063-14.063-14.063 6.309-14.063 14.063m18.75 0c0 2.583-2.105 4.688-4.688 4.688s-4.688-2.105-4.688-4.688S56.011 225 58.594 225s4.688 2.105 4.688 4.688M44.532 173.438c10.341 0 18.75-8.409 18.75-18.75s-8.409-18.75-18.75-18.75-18.75 8.409-18.75 18.75 8.409 18.75 18.75 18.75m0-28.125c5.17 0 9.375 4.205 9.375 9.375s-4.205 9.375-9.375 9.375-9.375-4.205-9.375-9.375 4.205-9.375 9.375-9.375"/><path d="M25.782 220.313h9.375v9.375h-9.375zM2.344 196.875h9.375v9.375H2.344zM2.344 178.125h9.375v9.375H2.344z"/></svg>