<?xml version="1.0" encoding="iso-8859-1"?>
<!-- Uploaded to: SVG Repo, www.svgrepo.com, Generator: SVG Repo Mixer Tools -->
<svg fill="#000000" version="1.1" id="Layer_1" xmlns="http://www.w3.org/2000/svg" xmlns:xlink="http://www.w3.org/1999/xlink" 
	 viewBox="0 0 290.627 290.627" xml:space="preserve">
<g>
	<g>
		<g>
			<path d="M232.032,257.813V206.25h4.688v-4.688c0-12.923-10.514-23.438-23.438-23.438h-37.5V18.75
				c0-10.341-8.409-18.75-18.75-18.75s-18.75,8.409-18.75,18.75v159.375h-37.5c-12.923,0-23.438,10.514-23.438,23.438v4.688h4.688
				v51.563c0,18.094,14.719,32.813,32.813,32.813h75v-5.541c6.708,3.497,14.77,5.541,23.438,5.541h42.188v-9.375
				C242.545,281.25,232.032,270.736,232.032,257.813z M147.657,18.75c0-5.17,4.205-9.375,9.375-9.375s9.375,4.205,9.375,9.375
				v135.938h-18.75V18.75z M147.657,164.063h18.75v14.063h-18.75V164.063z M100.782,187.5h112.5c6.113,0,11.325,3.919,13.261,9.375
				H87.521C89.456,191.419,94.67,187.5,100.782,187.5z M114.844,281.251L114.844,281.251c-12.923-0.001-23.438-10.515-23.438-23.439
				V206.25h23.438v51.563c0,9.178,3.797,17.475,9.891,23.438H114.844z M213.282,281.251L213.282,281.251
				c-18.094-0.001-32.813-10.515-32.813-23.439h-9.375c0,9.361,2.02,17.573,5.377,23.438h-28.814
				c-12.923,0-23.438-10.514-23.438-23.438V206.25h75V225h9.375v-18.75h14.063v51.563c0,9.173,3.783,17.48,9.867,23.438H213.282z"/>
			<rect x="199.219" y="234.375" width="9.375" height="9.375"/>
			<path d="M35.157,239.063h-9.375c0,8.405,2.02,16.345,5.602,23.363c-12.131-11.916-19.664-28.491-19.664-46.8H2.344
				c0,41.353,33.647,75,75,75v-9.375C54.084,281.25,35.157,262.322,35.157,239.063z"/>
			<rect x="264.844" y="281.25" width="23.438" height="9.375"/>
			<path d="M44.532,229.688c0,7.753,6.309,14.063,14.063,14.063c7.754,0,14.063-6.309,14.063-14.063
				c0-7.754-6.309-14.063-14.063-14.063C50.841,215.625,44.532,221.934,44.532,229.688z M63.282,229.688
				c0,2.583-2.105,4.688-4.688,4.688s-4.688-2.105-4.688-4.688S56.011,225,58.594,225S63.282,227.105,63.282,229.688z"/>
			<path d="M44.532,173.438c10.341,0,18.75-8.409,18.75-18.75s-8.409-18.75-18.75-18.75s-18.75,8.409-18.75,18.75
				C25.782,165.028,34.191,173.438,44.532,173.438z M44.532,145.313c5.17,0,9.375,4.205,9.375,9.375s-4.205,9.375-9.375,9.375
				s-9.375-4.205-9.375-9.375S39.362,145.313,44.532,145.313z"/>
			<rect x="25.782" y="220.313" width="9.375" height="9.375"/>
			<rect x="2.344" y="196.875" width="9.375" height="9.375"/>
			<rect x="2.344" y="178.125" width="9.375" height="9.375"/>
		</g>
	</g>
</g>
</svg>